<svg width="14" height="14" viewBox="0 0 14 14" fill="none" xmlns="http://www.w3.org/2000/svg">
<path d="M6.66667 0C10.3485 0 13.3333 2.98477 13.3333 6.66667C13.3333 10.3485 10.3485 13.3333 6.66667 13.3333C2.98477 13.3333 0 10.3485 0 6.66667H1.33333C1.33333 9.6122 3.72115 12 6.66667 12C9.6122 12 12 9.6122 12 6.66667C12 3.72115 9.6122 1.33333 6.66667 1.33333C4.83348 1.33333 3.21631 2.25823 2.25634 3.66683L4 3.66667V5H0V1H1.33333L1.33326 2.66612C2.54956 1.04717 4.48582 0 6.66667 0ZM7.33333 3.33333L7.3332 6.39L9.49507 8.55227L8.55227 9.49507L5.99987 6.942L6 3.33333H7.33333Z" fill="#FF8D28"/>
</svg>
